<!DOCTYPE svg PUBLIC "-//W3C//DTD SVG 1.1//EN" "http://www.w3.org/Graphics/SVG/1.1/DTD/svg11.dtd">
<!-- Uploaded to: SVG Repo, www.svgrepo.com, Transformed by: SVG Repo Mixer Tools -->
<svg fill="#fff" height="800px" width="800px" version="1.1" xmlns="http://www.w3.org/2000/svg" viewBox="0 0 217.219 217.219" xmlns:xlink="http://www.w3.org/1999/xlink" enable-background="new 0 0 217.219 217.219" stroke="#fff">
<g id="SVGRepo_bgCarrier" stroke-width="0"/>
<g id="SVGRepo_tracerCarrier" stroke-linecap="round" stroke-linejoin="round"/>
<g id="SVGRepo_iconCarrier"> <g> <path d="M23.857,37.219l2.242,3.776c4.875,8.213,14.004,13.314,23.824,13.314c9.316,0,17.548-4.799,22.429-12.091h72.417 c4.883,7.181,13.109,11.907,22.418,11.907c10.325,0,19.257-5.329,23.894-14.255l1.896-3.652h-20.364l-5.311-9l5.311-9h20.641 l-2.242-3.776C187.059,7.78,178.445,0,167.188,0c-9.477,0-17.828,4.868-22.676,12.219H72.629 C67.829,5.09,59.537,0.466,49.924,0.466c-9.9,0-19.056,5.786-23.894,15.101l-1.896,3.652h20.365l5.311,9l-5.311,9H23.857z"/> <path d="m203.609,108.219h-24.757l-10.677-35.195h-119.237l-10.677,35.195h-24.652v35h14.034l-2.929,9.655-.216,.709v49.243h14.111v14.393h38v-14.393h63v14.393h39v-14.393h14.005v-49.243l-3.144-10.364h14.139v-35zm-136.576-18.38h83.046l13.459,48.315h-109.964l13.459-48.315zm13.577,87.38h-34v-18h34v18zm90,0h-35v-18h35v18z"/> </g> </g>
</svg>